<?xml version="1.0" encoding="UTF-8" standalone="no"?>
<!-- Created with Inkscape (http://www.inkscape.org/) -->

<svg
   width="512"
   height="512"
   viewBox="0 0 512 512"
   version="1.1"
   id="svg1"
   xml:space="preserve"
   xmlns="http://www.w3.org/2000/svg"
   xmlns:svg="http://www.w3.org/2000/svg"><defs
     id="defs1"><radialGradient
       id="b"
       cx="0"
       cy="0"
       r="1"
       gradientTransform="matrix(-2.657683,5.4964573,-8.7431129,-4.2275272,22.031698,7.8848817)"
       gradientUnits="userSpaceOnUse"><stop
         stop-color="#DADAE0"
         id="stop32" /><stop
         offset="1"
         stop-color="#D7D6DE"
         stop-opacity="0"
         id="stop33" /></radialGradient><radialGradient
       id="d"
       cx="0"
       cy="0"
       r="1"
       gradientTransform="matrix(11.937597,-10.874953,10.874885,11.937523,8.8120805,22.812358)"
       gradientUnits="userSpaceOnUse"><stop
         stop-color="#EAE0FD"
         id="stop34" /><stop
         offset="1"
         stop-color="#E7DDF9"
         stop-opacity="0"
         id="stop35" /></radialGradient><radialGradient
       id="f"
       cx="0"
       cy="0"
       r="1"
       gradientTransform="matrix(-1.49396,3.2867,-6.15255,-2.79662,21.11,7.66)"
       gradientUnits="userSpaceOnUse"><stop
         stop-color="#E5E3EF"
         id="stop36" /><stop
         offset="1"
         stop-color="#E5E3EF"
         stop-opacity="0"
         id="stop37" /></radialGradient><radialGradient
       id="g"
       cx="0"
       cy="0"
       r="1"
       gradientTransform="matrix(1.2538997,10.207775,-11.689736,1.4359405,15.44707,18.455342)"
       gradientUnits="userSpaceOnUse"><stop
         offset=".596"
         stop-color="#DACEF3"
         id="stop38" /><stop
         offset=".754"
         stop-color="#CCB9EB"
         id="stop39" /><stop
         offset=".962"
         stop-color="#BCA7DC"
         id="stop40" /></radialGradient><radialGradient
       id="h"
       cx="0"
       cy="0"
       r="1"
       gradientTransform="matrix(-14.737844,11.415784,-10.895822,-14.066569,20.520016,11.69023)"
       gradientUnits="userSpaceOnUse"><stop
         offset=".477"
         stop-color="#DACEF3"
         stop-opacity="0"
         id="stop41" /><stop
         offset=".694"
         stop-color="#E9E2FD"
         id="stop42" /><stop
         offset=".816"
         stop-color="#EBE8FB"
         id="stop43" /><stop
         offset=".962"
         stop-color="#EAE7F9"
         id="stop44" /></radialGradient><radialGradient
       id="i"
       cx="0"
       cy="0"
       r="1"
       gradientTransform="matrix(9.96614,14.85861,-17.01589,11.4131,12.306,12.475)"
       gradientUnits="userSpaceOnUse"><stop
         offset=".537"
         stop-color="#DACEF3"
         stop-opacity="0"
         id="stop45" /><stop
         offset=".754"
         stop-color="#B9B5CA"
         id="stop46" /><stop
         offset=".962"
         stop-color="#B2AEC4"
         id="stop47" /></radialGradient><radialGradient
       id="l"
       cx="0"
       cy="0"
       r="1"
       gradientTransform="matrix(3.9375,1.3125,-0.67555,2.02665,26.531,17.969)"
       gradientUnits="userSpaceOnUse"><stop
         stop-color="#9B89B3"
         id="stop48" /><stop
         offset="1"
         stop-color="#A28EBB"
         stop-opacity="0"
         id="stop49" /></radialGradient><radialGradient
       id="m"
       cx="0"
       cy="0"
       r="1"
       gradientTransform="matrix(1.4374978,1.5625007,-6.1233195,5.6334429,25.437254,5.5630781)"
       gradientUnits="userSpaceOnUse"><stop
         stop-color="#94929A"
         id="stop50" /><stop
         offset=".799"
         stop-color="#A29EAB"
         stop-opacity="0"
         id="stop51" /></radialGradient><radialGradient
       id="n"
       cx="0"
       cy="0"
       r="1"
       gradientTransform="matrix(-0.75000291,0.71874966,-1.1237971,-1.1726629,29.313792,6.4055768)"
       gradientUnits="userSpaceOnUse"><stop
         stop-color="#D7D2E0"
         id="stop52" /><stop
         offset="1"
         stop-color="#E1DEE8"
         stop-opacity="0"
         id="stop53" /></radialGradient><radialGradient
       id="r"
       cx="0"
       cy="0"
       r="1"
       gradientTransform="matrix(0,2.22656,-6.54842,0,28.669,29.992)"
       gradientUnits="userSpaceOnUse"><stop
         stop-color="#8B72A8"
         id="stop54" /><stop
         offset=".733"
         stop-color="#AE9AC8"
         stop-opacity="0"
         id="stop55" /></radialGradient><radialGradient
       id="u"
       cx="0"
       cy="0"
       r="1"
       gradientTransform="matrix(0.53125,0.46875,-0.57257,0.64892,3.281,5.5)"
       gradientUnits="userSpaceOnUse"><stop
         stop-color="#C9C7D0"
         id="stop56" /><stop
         offset="1"
         stop-color="#CDCAD5"
         stop-opacity="0"
         id="stop57" /></radialGradient><radialGradient
       id="v"
       cx="0"
       cy="0"
       r="1"
       gradientTransform="matrix(0.59374979,0.48437132,-0.5916554,0.72526026,5.7809372,5.3283799)"
       gradientUnits="userSpaceOnUse"><stop
         stop-color="#C9C7D0"
         id="stop58" /><stop
         offset="1"
         stop-color="#CDCAD5"
         stop-opacity="0"
         id="stop59" /></radialGradient><radialGradient
       id="w"
       cx="0"
       cy="0"
       r="1"
       gradientTransform="matrix(0.45312,0.51563,-0.62983,0.55349,8.39,5.313)"
       gradientUnits="userSpaceOnUse"><stop
         stop-color="#C9C7D0"
         id="stop60" /><stop
         offset="1"
         stop-color="#CDCAD5"
         stop-opacity="0"
         id="stop61" /></radialGradient><radialGradient
       id="x"
       cx="0"
       cy="0"
       r="1"
       gradientTransform="matrix(0,1.25781,-4.10938,0,5.422,29.992)"
       gradientUnits="userSpaceOnUse"><stop
         stop-color="#8F78AB"
         id="stop62" /><stop
         offset="1"
         stop-color="#9883B3"
         stop-opacity="0"
         id="stop63" /></radialGradient><radialGradient
       id="A"
       cx="0"
       cy="0"
       r="1"
       gradientTransform="matrix(0,1.25,-9.42188,0,5.453,30)"
       gradientUnits="userSpaceOnUse"><stop
         stop-color="#8F78AB"
         id="stop64" /><stop
         offset="1"
         stop-color="#A493BC"
         stop-opacity="0"
         id="stop65" /></radialGradient><filter
       id="c"
       width="22.341"
       height="22.341"
       x="5.5560002"
       y="5.8140001"
       color-interpolation-filters="sRGB"
       filterUnits="userSpaceOnUse"><feFlood
         flood-opacity="0"
         result="BackgroundImageFix"
         id="feFlood65" /><feBlend
         in="SourceGraphic"
         in2="BackgroundImageFix"
         result="shape"
         id="feBlend65"
         mode="normal" /><feGaussianBlur
         result="effect1_foregroundBlur_18_30937"
         stdDeviation=".25"
         id="feGaussianBlur65" /></filter><filter
       id="e"
       width="9.8649998"
       height="5.0040002"
       x="15.454"
       y="5.9660001"
       color-interpolation-filters="sRGB"
       filterUnits="userSpaceOnUse"><feFlood
         flood-opacity="0"
         result="BackgroundImageFix"
         id="feFlood66" /><feBlend
         in="SourceGraphic"
         in2="BackgroundImageFix"
         result="shape"
         id="feBlend66"
         mode="normal" /><feGaussianBlur
         result="effect1_foregroundBlur_18_30937"
         stdDeviation=".15"
         id="feGaussianBlur66" /></filter><filter
       id="j"
       width="6.348"
       height="11.031"
       x="23.558001"
       y="9.5310001"
       color-interpolation-filters="sRGB"
       filterUnits="userSpaceOnUse"><feFlood
         flood-opacity="0"
         result="BackgroundImageFix"
         id="feFlood67" /><feBlend
         in="SourceGraphic"
         in2="BackgroundImageFix"
         result="shape"
         id="feBlend67"
         mode="normal" /><feGaussianBlur
         result="effect1_foregroundBlur_18_30937"
         stdDeviation=".5"
         id="feGaussianBlur67" /></filter><filter
       id="o"
       width="4.3390002"
       height="12.367"
       x="25.341"
       y="5.5120001"
       color-interpolation-filters="sRGB"
       filterUnits="userSpaceOnUse"><feFlood
         flood-opacity="0"
         result="BackgroundImageFix"
         id="feFlood68" /><feBlend
         in="SourceGraphic"
         in2="BackgroundImageFix"
         result="shape"
         id="feBlend68"
         mode="normal" /><feGaussianBlur
         result="effect1_foregroundBlur_18_30937"
         stdDeviation=".25"
         id="feGaussianBlur68" /></filter><filter
       id="y"
       width="7.5"
       height="25.66"
       x="1.7029999"
       y="4.8080001"
       color-interpolation-filters="sRGB"
       filterUnits="userSpaceOnUse"><feFlood
         flood-opacity="0"
         result="BackgroundImageFix"
         id="feFlood69" /><feBlend
         in="SourceGraphic"
         in2="BackgroundImageFix"
         result="shape"
         id="feBlend69"
         mode="normal" /><feGaussianBlur
         result="effect1_foregroundBlur_18_30937"
         stdDeviation=".375"
         id="feGaussianBlur69" /></filter><filter
       id="B"
       width="1.5"
       height="14.531"
       x="5.4060001"
       y="14.844"
       color-interpolation-filters="sRGB"
       filterUnits="userSpaceOnUse"><feFlood
         flood-opacity="0"
         result="BackgroundImageFix"
         id="feFlood70" /><feBlend
         in="SourceGraphic"
         in2="BackgroundImageFix"
         result="shape"
         id="feBlend70"
         mode="normal" /><feGaussianBlur
         result="effect1_foregroundBlur_18_30937"
         stdDeviation=".25"
         id="feGaussianBlur70" /></filter><filter
       id="C"
       width="1.783"
       height="4.9039998"
       x="2.691"
       y="5.4840002"
       color-interpolation-filters="sRGB"
       filterUnits="userSpaceOnUse"><feFlood
         flood-opacity="0"
         result="BackgroundImageFix"
         id="feFlood71" /><feBlend
         in="SourceGraphic"
         in2="BackgroundImageFix"
         result="shape"
         id="feBlend71"
         mode="normal" /><feGaussianBlur
         result="effect1_foregroundBlur_18_30937"
         stdDeviation=".125"
         id="feGaussianBlur71" /></filter><filter
       id="E"
       width="1.783"
       height="4.9039998"
       x="5.2529998"
       y="5.4840002"
       color-interpolation-filters="sRGB"
       filterUnits="userSpaceOnUse"><feFlood
         flood-opacity="0"
         result="BackgroundImageFix"
         id="feFlood72" /><feBlend
         in="SourceGraphic"
         in2="BackgroundImageFix"
         result="shape"
         id="feBlend72"
         mode="normal" /><feGaussianBlur
         result="effect1_foregroundBlur_18_30937"
         stdDeviation=".125"
         id="feGaussianBlur72" /></filter><filter
       id="G"
       width="2.8840001"
       height="9.5869999"
       x="6.1589999"
       y="5.1750002"
       color-interpolation-filters="sRGB"
       filterUnits="userSpaceOnUse"><feFlood
         flood-opacity="0"
         result="BackgroundImageFix"
         id="feFlood73" /><feBlend
         in="SourceGraphic"
         in2="BackgroundImageFix"
         result="shape"
         id="feBlend73"
         mode="normal" /><feGaussianBlur
         result="effect1_foregroundBlur_18_30937"
         stdDeviation=".25"
         id="feGaussianBlur73" /></filter><filter
       id="H"
       width="1.516"
       height="1.516"
       x="2.3050001"
       y="4.9970002"
       color-interpolation-filters="sRGB"
       filterUnits="userSpaceOnUse"><feFlood
         flood-opacity="0"
         result="BackgroundImageFix"
         id="feFlood74" /><feBlend
         in="SourceGraphic"
         in2="BackgroundImageFix"
         result="shape"
         id="feBlend74"
         mode="normal" /><feGaussianBlur
         result="effect1_foregroundBlur_18_30937"
         stdDeviation=".25"
         id="feGaussianBlur74" /></filter><filter
       id="I"
       width="1.516"
       height="1.516"
       x="4.9219999"
       y="4.9970002"
       color-interpolation-filters="sRGB"
       filterUnits="userSpaceOnUse"><feFlood
         flood-opacity="0"
         result="BackgroundImageFix"
         id="feFlood75" /><feBlend
         in="SourceGraphic"
         in2="BackgroundImageFix"
         result="shape"
         id="feBlend75"
         mode="normal" /><feGaussianBlur
         result="effect1_foregroundBlur_18_30937"
         stdDeviation=".25"
         id="feGaussianBlur75" /></filter><filter
       id="J"
       width="1.516"
       height="1.516"
       x="7.4380002"
       y="4.9970002"
       color-interpolation-filters="sRGB"
       filterUnits="userSpaceOnUse"><feFlood
         flood-opacity="0"
         result="BackgroundImageFix"
         id="feFlood76" /><feBlend
         in="SourceGraphic"
         in2="BackgroundImageFix"
         result="shape"
         id="feBlend76"
         mode="normal" /><feGaussianBlur
         result="effect1_foregroundBlur_18_30937"
         stdDeviation=".25"
         id="feGaussianBlur76" /></filter><linearGradient
       id="a"
       x1="15.447"
       x2="16.701"
       y1="6.0120001"
       y2="28.007999"
       gradientUnits="userSpaceOnUse"><stop
         offset=".115"
         stop-color="#BCBBC4"
         id="stop76" /><stop
         offset=".228"
         stop-color="#8F8D9B"
         id="stop77" /><stop
         offset=".689"
         stop-color="#A8A0BC"
         id="stop78" /><stop
         offset=".766"
         stop-color="#BFA1E2"
         id="stop79" /></linearGradient><linearGradient
       id="k"
       x1="29.99"
       x2="25.031"
       y1="12.063"
       y2="12.063"
       gradientUnits="userSpaceOnUse"><stop
         stop-color="#C4C2CB"
         id="stop80" /><stop
         offset=".036"
         stop-color="#CFC9D9"
         id="stop81" /><stop
         offset=".515"
         stop-color="#B9B1C7"
         id="stop82" /><stop
         offset="1"
         stop-color="#A398B4"
         id="stop83" /></linearGradient><linearGradient
       id="p"
       x1="27.511"
       x2="27.511"
       y1="6.0120001"
       y2="17.379"
       gradientUnits="userSpaceOnUse"><stop
         stop-color="#C1B6D0"
         id="stop84" /><stop
         offset=".818"
         stop-color="#B4A9C5"
         id="stop85" /></linearGradient><linearGradient
       id="q"
       x1="27.348"
       x2="29.99"
       y1="24.688"
       y2="24.688"
       gradientUnits="userSpaceOnUse"><stop
         stop-color="#7E748E"
         id="stop86" /><stop
         offset=".359"
         stop-color="#A69BB8"
         id="stop87" /><stop
         offset=".734"
         stop-color="#CBC4D9"
         id="stop88" /><stop
         offset="1"
         stop-color="#C4C1CC"
         id="stop89" /></linearGradient><linearGradient
       id="s"
       x1="28.669001"
       x2="28.669001"
       y1="18.266001"
       y2="18.469"
       gradientUnits="userSpaceOnUse"><stop
         stop-color="#8E80A3"
         id="stop90" /><stop
         offset="1"
         stop-color="#8D80A2"
         stop-opacity="0"
         id="stop91" /></linearGradient><linearGradient
       id="t"
       x1="2"
       x2="10.75"
       y1="8"
       y2="9.9379997"
       gradientUnits="userSpaceOnUse"><stop
         stop-color="#8B8893"
         id="stop92" /><stop
         offset=".59"
         stop-color="#938DA0"
         id="stop93" /><stop
         offset=".839"
         stop-color="#AFA3C1"
         id="stop94" /><stop
         offset="1"
         stop-color="#ACA0C0"
         id="stop95" /></linearGradient><linearGradient
       id="z"
       x1="4.4380002"
       x2="5.4530001"
       y1="6.0630002"
       y2="29.719"
       gradientUnits="userSpaceOnUse"><stop
         offset=".143"
         stop-color="#B4AAC2"
         id="stop96" /><stop
         offset="1"
         stop-color="#B5A9C8"
         id="stop97" /></linearGradient><linearGradient
       id="D"
       x1="3.3440001"
       x2="4.9380002"
       y1="6.2189999"
       y2="10.594"
       gradientUnits="userSpaceOnUse"><stop
         offset=".412"
         stop-color="#C0B9CC"
         id="stop98" /><stop
         offset="1"
         stop-color="#C0B9CC"
         stop-opacity="0"
         id="stop99" /></linearGradient><linearGradient
       id="F"
       x1="5.9060001"
       x2="7.5"
       y1="6.2189999"
       y2="10.594"
       gradientUnits="userSpaceOnUse"><stop
         offset=".412"
         stop-color="#C0B9CC"
         id="stop100" /><stop
         offset="1"
         stop-color="#C0B9CC"
         stop-opacity="0"
         id="stop101" /></linearGradient></defs><g
     id="layer1"><g
       style="fill:none"
       id="g1"
       transform="matrix(17.924077,0,0,17.924077,-30.524702,-60.14487)"><path
         fill="url(#a)"
         d="m 16.7,28.008 c 6.075,0 10.999,-4.924 10.999,-10.998 0,-6.074 -4.924,-10.998 -10.999,-10.998 -6.075,0 -10.997,4.924 -10.997,10.998 0,6.074 4.924,10.998 10.998,10.998"
         id="path1"
         style="fill:url(#a)" /><path
         fill="url(#b)"
         d="m 16.7,28.008 c 6.075,0 10.999,-4.924 10.999,-10.998 0,-6.074 -4.924,-10.998 -10.999,-10.998 -6.075,0 -10.997,4.924 -10.997,10.998 0,6.074 4.924,10.998 10.998,10.998"
         id="path2"
         style="fill:url(#b)" /><g
         filter="url(#c)"
         id="g4"><path
           fill="#ddcef5"
           d="m 16.726,27.655 c 5.893,0 10.67,-4.777 10.67,-10.67 0,-5.893 -4.777,-10.67 -10.67,-10.67 -5.893,0 -10.67,4.776 -10.67,10.67 0,5.893 4.777,10.67 10.67,10.67"
           id="path3" /><path
           fill="url(#d)"
           d="m 16.726,27.655 c 5.893,0 10.67,-4.777 10.67,-10.67 0,-5.893 -4.777,-10.67 -10.67,-10.67 -5.893,0 -10.67,4.776 -10.67,10.67 0,5.893 4.777,10.67 10.67,10.67"
           id="path4"
           style="fill:url(#d)" /></g><g
         filter="url(#e)"
         id="g5"><path
           fill="url(#f)"
           d="M 15.755,6.344 C 18.957,5.907 23.026,7.29 25.019,10.67 22.442,8.194 19.704,6.668 15.755,6.344"
           id="path5"
           style="fill:url(#f)" /></g><path
         fill="#d8cbf0"
         d="m 16.7,24.577 a 7.567,7.567 0 1 0 0.001,-15.134 7.567,7.567 0 0 0 0,15.134"
         id="path6" /><path
         fill="url(#g)"
         d="m 16.7,24.577 a 7.567,7.567 0 1 0 0.001,-15.134 7.567,7.567 0 0 0 0,15.134"
         id="path7"
         style="fill:url(#g)" /><path
         fill="url(#h)"
         d="m 16.7,24.577 a 7.567,7.567 0 1 0 0.001,-15.134 7.567,7.567 0 0 0 0,15.134"
         id="path8"
         style="fill:url(#h)" /><path
         fill="url(#i)"
         d="m 16.7,24.577 a 7.567,7.567 0 1 0 0.001,-15.134 7.567,7.567 0 0 0 0,15.134"
         id="path9"
         style="fill:url(#i)" /><g
         filter="url(#j)"
         id="g10"><path
           fill="#b9a9d2"
           d="m 28.906,10.531 v 9.032 l -2.053,-0.822 c -1.384,-0.551 -2.295,-2.01 -2.295,-3.653 v -4.557 z"
           id="path10" /></g><path
         fill="url(#k)"
         d="m 27.949,5.042 c 1.127,0 2.041,0.895 2.041,1.998 V 18.266 H 27.36 A 3.83,3.83 0 0 1 25.031,14.713 V 7.91 c -0.012,-1.58 1.29,-2.868 2.918,-2.868"
         id="path11"
         style="fill:url(#k)" /><path
         fill="url(#l)"
         d="m 27.949,5.042 c 1.127,0 2.041,0.895 2.041,1.998 V 18.266 H 27.36 A 3.83,3.83 0 0 1 25.031,14.713 V 7.91 c -0.012,-1.58 1.29,-2.868 2.918,-2.868"
         id="path12"
         style="fill:url(#l)" /><path
         fill="url(#m)"
         d="m 27.949,5.042 c 1.127,0 2.041,0.895 2.041,1.998 V 18.266 H 27.36 A 3.83,3.83 0 0 1 25.031,14.713 V 7.91 c -0.012,-1.58 1.29,-2.868 2.918,-2.868"
         id="path13"
         style="fill:url(#m)" /><path
         fill="url(#n)"
         d="m 27.949,5.042 c 1.127,0 2.041,0.895 2.041,1.998 V 18.266 H 27.36 A 3.83,3.83 0 0 1 25.031,14.713 V 7.91 c -0.012,-1.58 1.29,-2.868 2.918,-2.868"
         id="path14"
         style="fill:url(#n)" /><g
         filter="url(#o)"
         id="g15"><path
           fill="url(#p)"
           d="m 27.806,6.012 c 0.758,0 1.374,0.603 1.374,1.345 V 17.38 c -1.374,0 -3.339,-1.052 -3.339,-3.665 V 7.945 C 25.833,6.88 26.71,6.013 27.806,6.013"
           id="path15"
           style="fill:url(#p)" /></g><path
         fill="url(#q)"
         d="m 27.348,18.266 v 10.573 c 0,0.638 0.526,1.153 1.177,1.153 h 0.288 c 0.651,0 1.177,-0.515 1.177,-1.153 V 18.266 Z"
         id="path16"
         style="fill:url(#q)" /><path
         fill="url(#r)"
         d="m 27.348,18.266 v 10.573 c 0,0.638 0.526,1.153 1.177,1.153 h 0.288 c 0.651,0 1.177,-0.515 1.177,-1.153 V 18.266 Z"
         id="path17"
         style="fill:url(#r)" /><path
         fill="url(#s)"
         d="m 27.348,18.266 v 10.573 c 0,0.638 0.526,1.153 1.177,1.153 h 0.288 c 0.651,0 1.177,-0.515 1.177,-1.153 V 18.266 Z"
         id="path18"
         style="fill:url(#s)" /><path
         fill="url(#t)"
         d="m 7.965,5.042 c -0.47,0 -0.841,0.33 -0.841,0.723 V 9.08 C 7.124,9.293 6.926,9.452 6.69,9.452 6.443,9.452 6.257,9.282 6.257,9.08 V 5.797 C 6.257,5.404 5.898,5.053 5.44,5.042 4.958,5.032 4.562,5.362 4.562,5.765 V 9.08 c 0,0.213 -0.198,0.372 -0.433,0.372 -0.248,0 -0.434,-0.17 -0.434,-0.372 V 5.797 C 3.695,5.404 3.337,5.053 2.879,5.042 2.396,5.032 2,5.362 2,5.765 v 5.829 c 0,2.055 2.116,2.612 2.116,4.065 v 13.005 c 0,0.706 0.595,1.328 1.306,1.328 0.71,0 1.306,-0.622 1.306,-1.328 V 15.66 c 0,-1.505 2.116,-1.994 2.116,-4.065 V 5.765 C 8.819,5.373 8.435,5.043 7.965,5.043"
         id="path19"
         style="fill:url(#t)" /><path
         fill="url(#u)"
         d="m 7.965,5.042 c -0.47,0 -0.841,0.33 -0.841,0.723 V 9.08 C 7.124,9.293 6.926,9.452 6.69,9.452 6.443,9.452 6.257,9.282 6.257,9.08 V 5.797 C 6.257,5.404 5.898,5.053 5.44,5.042 4.958,5.032 4.562,5.362 4.562,5.765 V 9.08 c 0,0.213 -0.198,0.372 -0.433,0.372 -0.248,0 -0.434,-0.17 -0.434,-0.372 V 5.797 C 3.695,5.404 3.337,5.053 2.879,5.042 2.396,5.032 2,5.362 2,5.765 v 5.829 c 0,2.055 2.116,2.612 2.116,4.065 v 13.005 c 0,0.706 0.595,1.328 1.306,1.328 0.71,0 1.306,-0.622 1.306,-1.328 V 15.66 c 0,-1.505 2.116,-1.994 2.116,-4.065 V 5.765 C 8.819,5.373 8.435,5.043 7.965,5.043"
         id="path20"
         style="fill:url(#u)" /><path
         fill="url(#v)"
         d="m 7.965,5.042 c -0.47,0 -0.841,0.33 -0.841,0.723 V 9.08 C 7.124,9.293 6.926,9.452 6.69,9.452 6.443,9.452 6.257,9.282 6.257,9.08 V 5.797 C 6.257,5.404 5.898,5.053 5.44,5.042 4.958,5.032 4.562,5.362 4.562,5.765 V 9.08 c 0,0.213 -0.198,0.372 -0.433,0.372 -0.248,0 -0.434,-0.17 -0.434,-0.372 V 5.797 C 3.695,5.404 3.337,5.053 2.879,5.042 2.396,5.032 2,5.362 2,5.765 v 5.829 c 0,2.055 2.116,2.612 2.116,4.065 v 13.005 c 0,0.706 0.595,1.328 1.306,1.328 0.71,0 1.306,-0.622 1.306,-1.328 V 15.66 c 0,-1.505 2.116,-1.994 2.116,-4.065 V 5.765 C 8.819,5.373 8.435,5.043 7.965,5.043"
         id="path21"
         style="fill:url(#v)" /><path
         fill="url(#w)"
         d="m 7.965,5.042 c -0.47,0 -0.841,0.33 -0.841,0.723 V 9.08 C 7.124,9.293 6.926,9.452 6.69,9.452 6.443,9.452 6.257,9.282 6.257,9.08 V 5.797 C 6.257,5.404 5.898,5.053 5.44,5.042 4.958,5.032 4.562,5.362 4.562,5.765 V 9.08 c 0,0.213 -0.198,0.372 -0.433,0.372 -0.248,0 -0.434,-0.17 -0.434,-0.372 V 5.797 C 3.695,5.404 3.337,5.053 2.879,5.042 2.396,5.032 2,5.362 2,5.765 v 5.829 c 0,2.055 2.116,2.612 2.116,4.065 v 13.005 c 0,0.706 0.595,1.328 1.306,1.328 0.71,0 1.306,-0.622 1.306,-1.328 V 15.66 c 0,-1.505 2.116,-1.994 2.116,-4.065 V 5.765 C 8.819,5.373 8.435,5.043 7.965,5.043"
         id="path22"
         style="fill:url(#w)" /><path
         fill="url(#x)"
         d="m 7.965,5.042 c -0.47,0 -0.841,0.33 -0.841,0.723 V 9.08 C 7.124,9.293 6.926,9.452 6.69,9.452 6.443,9.452 6.257,9.282 6.257,9.08 V 5.797 C 6.257,5.404 5.898,5.053 5.44,5.042 4.958,5.032 4.562,5.362 4.562,5.765 V 9.08 c 0,0.213 -0.198,0.372 -0.433,0.372 -0.248,0 -0.434,-0.17 -0.434,-0.372 V 5.797 C 3.695,5.404 3.337,5.053 2.879,5.042 2.396,5.032 2,5.362 2,5.765 v 5.829 c 0,2.055 2.116,2.612 2.116,4.065 v 13.005 c 0,0.706 0.595,1.328 1.306,1.328 0.71,0 1.306,-0.622 1.306,-1.328 V 15.66 c 0,-1.505 2.116,-1.994 2.116,-4.065 V 5.765 C 8.819,5.373 8.435,5.043 7.965,5.043"
         id="path23"
         style="fill:url(#x)" /><g
         filter="url(#y)"
         id="g25"><path
           fill="url(#z)"
           d="m 7.96,5.558 c -0.388,0 -0.444,0.361 -0.444,0.755 v 2.681 c 0,0.639 -0.485,0.795 -0.79,0.795 -0.304,0 -0.851,-0.172 -0.851,-0.795 V 6.313 C 5.875,5.919 5.82,5.558 5.492,5.558 5.164,5.558 5.086,5.908 5.086,6.312 V 8.994 C 5.086,9.429 4.641,9.789 4.133,9.789 3.758,9.789 3.25,9.539 3.25,8.994 V 6.313 c 0,-0.394 -0.07,-0.755 -0.398,-0.755 -0.329,0 -0.399,0.35 -0.399,0.755 v 5.281 c 0,2.055 2.125,2.612 2.125,4.065 v 12.958 c 0,0.706 0.225,1.102 0.813,1.102 0.587,0 0.922,-0.349 0.922,-1.055 V 15.66 c 0,-1.505 2.14,-1.994 2.14,-4.065 v -2.6 L 8.375,6.313 C 8.355,5.92 8.35,5.559 7.961,5.559"
           id="path24"
           style="fill:url(#z)" /><path
           fill="url(#A)"
           d="m 7.96,5.558 c -0.388,0 -0.444,0.361 -0.444,0.755 v 2.681 c 0,0.639 -0.485,0.795 -0.79,0.795 -0.304,0 -0.851,-0.172 -0.851,-0.795 V 6.313 C 5.875,5.919 5.82,5.558 5.492,5.558 5.164,5.558 5.086,5.908 5.086,6.312 V 8.994 C 5.086,9.429 4.641,9.789 4.133,9.789 3.758,9.789 3.25,9.539 3.25,8.994 V 6.313 c 0,-0.394 -0.07,-0.755 -0.398,-0.755 -0.329,0 -0.399,0.35 -0.399,0.755 v 5.281 c 0,2.055 2.125,2.612 2.125,4.065 v 12.958 c 0,0.706 0.225,1.102 0.813,1.102 0.587,0 0.922,-0.349 0.922,-1.055 V 15.66 c 0,-1.505 2.14,-1.994 2.14,-4.065 v -2.6 L 8.375,6.313 C 8.355,5.92 8.35,5.559 7.961,5.559"
           id="path25"
           style="fill:url(#A)" /></g><g
         filter="url(#B)"
         id="g26"><path
           stroke="#c3bdcf"
           stroke-linecap="round"
           stroke-width="0.5"
           d="M 6.156,15.594 V 28.625"
           id="path26" /></g><g
         filter="url(#C)"
         id="g27"><path
           fill="url(#D)"
           d="m 3.34,5.934 a 0.2,0.2 0 0 0 -0.4,0 z m 0.683,4.203 h 0.2 v -0.4 h -0.2 z M 2.941,5.934 v 2.8 h 0.4 v -2.8 z m 0,2.8 c 0,0.172 0.043,0.504 0.19,0.802 0.148,0.302 0.425,0.601 0.892,0.601 v -0.4 C 3.765,9.737 3.6,9.584 3.489,9.359 3.376,9.129 3.341,8.859 3.341,8.734 Z"
           id="path27"
           style="fill:url(#D)" /></g><g
         filter="url(#E)"
         id="g28"><path
           fill="url(#F)"
           d="m 5.903,5.934 a 0.2,0.2 0 0 0 -0.4,0 z m 0.683,4.203 h 0.2 v -0.4 h -0.2 z M 5.503,5.934 v 2.8 h 0.4 v -2.8 z m 0,2.8 c 0,0.172 0.043,0.504 0.19,0.802 0.149,0.302 0.425,0.601 0.893,0.601 v -0.4 C 6.327,9.737 6.162,9.584 6.051,9.359 5.938,9.129 5.903,8.859 5.903,8.734 Z"
           id="path28"
           style="fill:url(#F)" /></g><g
         filter="url(#G)"
         id="g29"><path
           stroke="#c3bdcf"
           stroke-linecap="round"
           stroke-width="0.4"
           d="M 8.344,5.875 V 11.5 c 0,0.86 -1.016,2.125 -1.485,2.563"
           id="path29" /></g><g
         filter="url(#H)"
         id="g30"><circle
           cx="3.063"
           cy="5.7540002"
           r="0.25799999"
           fill="#e0dce8"
           id="circle29" /></g><g
         filter="url(#I)"
         id="g31"><circle
           cx="5.6799998"
           cy="5.7540002"
           r="0.25799999"
           fill="#e0dce8"
           id="circle30" /></g><g
         filter="url(#J)"
         id="g32"><circle
           cx="8.1949997"
           cy="5.7540002"
           r="0.25799999"
           fill="#e0dce8"
           id="circle31" /></g></g></g></svg>
